<svg width="251" height="38" viewBox="0 0 251 38" fill="none" xmlns="http://www.w3.org/2000/svg">
<path d="M0.925 37V35.845L2.52 35.405C3.21667 35.2217 3.69333 34.8733 3.95 34.36C4.24333 33.8467 4.39 33.2233 4.39 32.49V5.87C4.06 5.17333 3.76667 4.66 3.51 4.33C3.29 3.96333 3.05167 3.65167 2.795 3.395C2.53833 3.13833 2.19 2.845 1.75 2.515L0.76 1.8V0.644999H10.165L28.425 25.615V5.21C28.425 4.47666 28.2967 3.835 28.04 3.285C27.82 2.735 27.3433 2.36833 26.61 2.185L24.96 1.8V0.644999H33.155V1.8L31.78 2.185C31.0833 2.405 30.6433 2.79 30.46 3.34C30.3133 3.85333 30.24 4.47666 30.24 5.21V37.22H27.16L6.205 8.4V32.435C6.205 33.205 6.315 33.8467 6.535 34.36C6.755 34.8733 7.21333 35.2217 7.91 35.405L9.395 35.845V37H0.925ZM48.3337 9.775C50.6437 9.775 52.6237 10.2517 54.2737 11.205C55.9237 12.1583 57.1887 13.4783 58.0687 15.165C58.9854 16.815 59.4437 18.7217 59.4437 20.885C59.4437 21.3617 59.4254 21.82 59.3887 22.26C59.352 22.6633 59.2787 23.0483 59.1687 23.415H42.6137C42.6504 27.1917 43.347 29.905 44.7037 31.555C46.097 33.205 48.1137 34.03 50.7537 34.03C52.587 34.03 54.072 33.7367 55.2087 33.15C56.3454 32.5267 57.3904 31.665 58.3437 30.565L59.2237 31.39C58.1237 33.4067 56.6204 34.9833 54.7137 36.12C52.8437 37.22 50.607 37.77 48.0037 37.77C45.4004 37.77 43.1087 37.22 41.1287 36.12C39.1487 35.02 37.5904 33.4433 36.4537 31.39C35.3537 29.3 34.8037 26.8067 34.8037 23.91C34.8037 20.9033 35.4454 18.355 36.7287 16.265C38.0487 14.175 39.7354 12.58 41.7887 11.48C43.8787 10.3433 46.0604 9.775 48.3337 9.775ZM48.0587 11.37C46.9954 11.37 46.0604 11.6817 45.2537 12.305C44.4837 12.8917 43.8604 13.955 43.3837 15.495C42.9437 16.9983 42.687 19.125 42.6137 21.875H52.4587C52.862 18.1717 52.7154 15.495 52.0187 13.845C51.322 12.195 50.002 11.37 48.0587 11.37ZM73.1963 37.165L64.7813 14.285C64.5613 13.625 64.2496 13.13 63.8463 12.8C63.4796 12.4333 62.9846 12.14 62.3613 11.92L61.4263 11.645V10.6H74.5713V11.645L73.6913 11.865C72.298 12.2317 71.8396 13.1117 72.3163 14.505L77.3213 29.465L81.9413 17.2L81.1163 14.725C80.8596 13.955 80.5846 13.35 80.2913 12.91C80.0346 12.47 79.6496 12.1583 79.1363 11.975L78.2013 11.645V10.6H89.5313V11.645L88.7613 11.92C88.1746 12.14 87.808 12.4517 87.6613 12.855C87.5513 13.2217 87.6246 13.7717 87.8813 14.505L92.7763 29.135L97.7263 14.56C98.1663 13.13 97.8363 12.2683 96.7363 11.975L95.6363 11.645V10.6H103.006V11.645L101.796 11.975C101.173 12.1583 100.696 12.4333 100.366 12.8C100.036 13.1667 99.7613 13.68 99.5413 14.34L91.6213 37.165H88.7613L82.7663 19.62L76.2763 37.165H73.1963ZM113.601 37.77C111.841 37.77 110.246 37.5683 108.816 37.165C107.422 36.7983 106.084 36.2667 104.801 35.57V29.08H106.286L107.936 32.215C108.632 33.5717 109.421 34.58 110.301 35.24C111.217 35.9 112.372 36.23 113.766 36.23C115.489 36.23 116.864 35.8633 117.891 35.13C118.917 34.36 119.431 33.3333 119.431 32.05C119.431 30.8767 119.046 29.9233 118.276 29.19C117.506 28.4567 116.131 27.7783 114.151 27.155L111.731 26.385C109.567 25.725 107.844 24.735 106.561 23.415C105.314 22.0583 104.691 20.3717 104.691 18.355C104.691 16.7783 105.112 15.3483 105.956 14.065C106.799 12.745 108.027 11.7 109.641 10.93C111.254 10.16 113.216 9.775 115.526 9.775C117.029 9.775 118.404 9.95833 119.651 10.325C120.934 10.655 122.181 11.1317 123.391 11.755L123.061 17.64H121.631L119.926 14.505C119.339 13.3317 118.734 12.525 118.111 12.085C117.524 11.6083 116.607 11.37 115.361 11.37C114.041 11.37 112.867 11.7183 111.841 12.415C110.851 13.075 110.356 14.01 110.356 15.22C110.356 16.3567 110.777 17.2917 111.621 18.025C112.464 18.7217 113.821 19.3817 115.691 20.005L118.056 20.72C120.732 21.5633 122.639 22.6817 123.776 24.075C124.912 25.4683 125.481 27.1367 125.481 29.08C125.481 31.6833 124.436 33.7917 122.346 35.405C120.292 36.9817 117.377 37.77 113.601 37.77ZM129.032 24.24V21.93H142.782V24.24H129.032ZM146.374 37V35.845L147.969 35.405C148.666 35.2217 149.143 34.8733 149.399 34.36C149.693 33.8467 149.839 33.2233 149.839 32.49V5.87C149.509 5.17333 149.216 4.66 148.959 4.33C148.739 3.96333 148.501 3.65167 148.244 3.395C147.988 3.13833 147.639 2.845 147.199 2.515L146.209 1.8V0.644999H155.614L173.874 25.615V5.21C173.874 4.47666 173.746 3.835 173.489 3.285C173.269 2.735 172.793 2.36833 172.059 2.185L170.409 1.8V0.644999H178.604V1.8L177.229 2.185C176.533 2.405 176.093 2.79 175.909 3.34C175.763 3.85333 175.689 4.47666 175.689 5.21V37.22H172.609L151.654 8.4V32.435C151.654 33.205 151.764 33.8467 151.984 34.36C152.204 34.8733 152.663 35.2217 153.359 35.405L154.844 35.845V37H146.374ZM193.783 37.77C191.07 37.77 188.686 37.2017 186.633 36.065C184.616 34.9283 183.04 33.315 181.903 31.225C180.803 29.135 180.253 26.6417 180.253 23.745C180.253 20.8483 180.84 18.355 182.013 16.265C183.223 14.175 184.836 12.58 186.853 11.48C188.906 10.3433 191.216 9.775 193.783 9.775C196.35 9.775 198.641 10.3433 200.658 11.48C202.711 12.58 204.325 14.175 205.498 16.265C206.708 18.3183 207.313 20.8117 207.313 23.745C207.313 26.6417 206.745 29.1533 205.608 31.28C204.508 33.37 202.95 34.9833 200.933 36.12C198.916 37.22 196.533 37.77 193.783 37.77ZM193.783 36.23C195.103 36.23 196.166 35.8817 196.973 35.185C197.816 34.4517 198.421 33.1867 198.788 31.39C199.155 29.5933 199.338 27.0817 199.338 23.855C199.338 20.5917 199.155 18.0617 198.788 16.265C198.421 14.4317 197.816 13.1667 196.973 12.47C196.166 11.7367 195.103 11.37 193.783 11.37C192.463 11.37 191.4 11.7367 190.593 12.47C189.786 13.1667 189.181 14.4317 188.778 16.265C188.411 18.0617 188.228 20.5917 188.228 23.855C188.228 27.0817 188.411 29.5933 188.778 31.39C189.181 33.1867 189.786 34.4517 190.593 35.185C191.4 35.8817 192.463 36.23 193.783 36.23ZM220.794 37.165L212.379 14.285C212.159 13.625 211.847 13.13 211.444 12.8C211.077 12.4333 210.582 12.14 209.959 11.92L209.024 11.645V10.6H222.169V11.645L221.289 11.865C219.896 12.2317 219.437 13.1117 219.914 14.505L224.919 29.465L229.539 17.2L228.714 14.725C228.457 13.955 228.182 13.35 227.889 12.91C227.632 12.47 227.247 12.1583 226.734 11.975L225.799 11.645V10.6H237.129V11.645L236.359 11.92C235.772 12.14 235.406 12.4517 235.259 12.855C235.149 13.2217 235.222 13.7717 235.479 14.505L240.374 29.135L245.324 14.56C245.764 13.13 245.434 12.2683 244.334 11.975L243.234 11.645V10.6H250.604V11.645L249.394 11.975C248.771 12.1583 248.294 12.4333 247.964 12.8C247.634 13.1667 247.359 13.68 247.139 14.34L239.219 37.165H236.359L230.364 19.62L223.874 37.165H220.794Z" fill="black"/>
</svg>
